<mxfile modified="2020-11-27T11:11:39.212Z" host="app.diagrams.net" agent="5.0 (Windows NT 10.0; Win64; x64) AppleWebKit/537.36 (KHTML, like Gecko) Chrome/87.0.4280.67 Safari/537.36 Edg/87.0.664.47" etag="ps8R1EUdBuMRLrOKPRcZ" version="13.10.4" type="github">
  <diagram id="Ht1M8jgEwFfnCIfOTk4-" name="Page-1">
    <mxGraphModel dx="1278" dy="580" grid="1" gridSize="10" guides="1" tooltips="1" connect="1" arrows="1" fold="1" page="1" pageScale="1" pageWidth="1169" pageHeight="827" math="0" shadow="0">
      <root>
        <mxCell id="0" />
        <mxCell id="1" parent="0" />
        <mxCell id="oHEbXPWXTwbzCA0-3dEh-6" value="Wabtec EFS Prod Infra Americas" style="verticalLabelPosition=bottom;html=1;verticalAlign=top;align=center;strokeColor=none;fillColor=#00BEF2;shape=mxgraph.azure.azure_subscription;" vertex="1" parent="1">
          <mxGeometry x="280" y="140" width="110" height="60" as="geometry" />
        </mxCell>
        <mxCell id="oHEbXPWXTwbzCA0-3dEh-7" value="" style="verticalLabelPosition=bottom;html=1;verticalAlign=top;align=center;strokeColor=none;fillColor=#00BEF2;shape=mxgraph.azure.access_control;" vertex="1" parent="1">
          <mxGeometry x="425" y="170" width="50" height="50" as="geometry" />
        </mxCell>
        <mxCell id="oHEbXPWXTwbzCA0-3dEh-8" value="" style="verticalLabelPosition=bottom;html=1;verticalAlign=top;align=center;strokeColor=none;fillColor=#00BEF2;shape=mxgraph.azure.azure_active_directory;" vertex="1" parent="1">
          <mxGeometry x="482.5" y="170" width="47.5" height="50" as="geometry" />
        </mxCell>
        <mxCell id="oHEbXPWXTwbzCA0-3dEh-9" value="" style="verticalLabelPosition=bottom;html=1;verticalAlign=top;align=center;strokeColor=none;fillColor=#00BEF2;shape=mxgraph.azure.azure_instance;" vertex="1" parent="1">
          <mxGeometry x="700" y="300" width="50" height="50" as="geometry" />
        </mxCell>
        <mxCell id="oHEbXPWXTwbzCA0-3dEh-10" value="" style="verticalLabelPosition=bottom;html=1;verticalAlign=top;align=center;strokeColor=none;fillColor=#00BEF2;shape=mxgraph.azure.azure_instance;" vertex="1" parent="1">
          <mxGeometry x="590" y="300" width="50" height="50" as="geometry" />
        </mxCell>
        <mxCell id="oHEbXPWXTwbzCA0-3dEh-11" value="" style="verticalLabelPosition=bottom;html=1;verticalAlign=top;align=center;strokeColor=none;fillColor=#00BEF2;shape=mxgraph.azure.azure_instance;" vertex="1" parent="1">
          <mxGeometry x="480" y="300" width="50" height="50" as="geometry" />
        </mxCell>
        <mxCell id="oHEbXPWXTwbzCA0-3dEh-12" value="" style="verticalLabelPosition=bottom;html=1;verticalAlign=top;align=center;strokeColor=none;fillColor=#00BEF2;shape=mxgraph.azure.backup_service;" vertex="1" parent="1">
          <mxGeometry x="1010" y="70" width="50" height="45" as="geometry" />
        </mxCell>
        <mxCell id="oHEbXPWXTwbzCA0-3dEh-13" value="" style="verticalLabelPosition=bottom;html=1;verticalAlign=top;align=center;strokeColor=none;fillColor=#00BEF2;shape=mxgraph.azure.azure_load_balancer;" vertex="1" parent="1">
          <mxGeometry x="590" y="370" width="50" height="35" as="geometry" />
        </mxCell>
        <mxCell id="oHEbXPWXTwbzCA0-3dEh-14" value="" style="verticalLabelPosition=bottom;html=1;verticalAlign=top;align=center;strokeColor=none;fillColor=#00BEF2;shape=mxgraph.azure.azure_instance;" vertex="1" parent="1">
          <mxGeometry x="700" y="440" width="50" height="50" as="geometry" />
        </mxCell>
        <mxCell id="oHEbXPWXTwbzCA0-3dEh-15" value="" style="verticalLabelPosition=bottom;html=1;verticalAlign=top;align=center;strokeColor=none;fillColor=#00BEF2;shape=mxgraph.azure.azure_instance;" vertex="1" parent="1">
          <mxGeometry x="590" y="440" width="50" height="50" as="geometry" />
        </mxCell>
        <mxCell id="oHEbXPWXTwbzCA0-3dEh-16" value="" style="verticalLabelPosition=bottom;html=1;verticalAlign=top;align=center;strokeColor=none;fillColor=#00BEF2;shape=mxgraph.azure.azure_instance;" vertex="1" parent="1">
          <mxGeometry x="480" y="440" width="50" height="50" as="geometry" />
        </mxCell>
        <mxCell id="oHEbXPWXTwbzCA0-3dEh-17" value="" style="verticalLabelPosition=bottom;html=1;verticalAlign=top;align=center;strokeColor=none;fillColor=#00BEF2;shape=mxgraph.azure.computer;pointerEvents=1;" vertex="1" parent="1">
          <mxGeometry x="1050" y="560" width="50" height="45" as="geometry" />
        </mxCell>
        <mxCell id="oHEbXPWXTwbzCA0-3dEh-18" value="" style="verticalLabelPosition=bottom;html=1;verticalAlign=top;align=center;strokeColor=none;fillColor=#00BEF2;shape=mxgraph.azure.express_route;pointerEvents=1;" vertex="1" parent="1">
          <mxGeometry x="970" y="500" width="50" height="30" as="geometry" />
        </mxCell>
        <mxCell id="oHEbXPWXTwbzCA0-3dEh-19" value="Azure Cloud Infrastructure services" style="verticalLabelPosition=bottom;html=1;verticalAlign=top;align=center;strokeColor=none;fillColor=#00BEF2;shape=mxgraph.azure.cloud;" vertex="1" parent="1">
          <mxGeometry x="640" y="117.5" width="50" height="32.5" as="geometry" />
        </mxCell>
        <mxCell id="oHEbXPWXTwbzCA0-3dEh-23" value="" style="verticalLabelPosition=bottom;html=1;verticalAlign=top;align=center;strokeColor=none;fillColor=#00BEF2;shape=mxgraph.azure.sql_database;" vertex="1" parent="1">
          <mxGeometry x="500" y="490" width="17.5" height="30" as="geometry" />
        </mxCell>
        <mxCell id="oHEbXPWXTwbzCA0-3dEh-24" value="" style="verticalLabelPosition=bottom;html=1;verticalAlign=top;align=center;strokeColor=none;fillColor=#00BEF2;shape=mxgraph.azure.sql_database;" vertex="1" parent="1">
          <mxGeometry x="620" y="490" width="20" height="30" as="geometry" />
        </mxCell>
        <mxCell id="oHEbXPWXTwbzCA0-3dEh-25" value="" style="verticalLabelPosition=bottom;html=1;verticalAlign=top;align=center;strokeColor=none;fillColor=#00BEF2;shape=mxgraph.azure.sql_database;" vertex="1" parent="1">
          <mxGeometry x="726" y="490" width="23.75" height="30" as="geometry" />
        </mxCell>
        <mxCell id="oHEbXPWXTwbzCA0-3dEh-29" value="" style="verticalLabelPosition=bottom;html=1;verticalAlign=top;align=center;strokeColor=none;fillColor=#00BEF2;shape=mxgraph.azure.multi_factor_authentication;pointerEvents=1;" vertex="1" parent="1">
          <mxGeometry x="920" y="470" width="25" height="50" as="geometry" />
        </mxCell>
        <mxCell id="oHEbXPWXTwbzCA0-3dEh-30" value="" style="verticalLabelPosition=bottom;html=1;verticalAlign=top;align=center;strokeColor=none;fillColor=#00BEF2;shape=mxgraph.azure.virtual_network;pointerEvents=1;" vertex="1" parent="1">
          <mxGeometry x="400" y="442.5" width="50" height="27.500000000000004" as="geometry" />
        </mxCell>
        <mxCell id="oHEbXPWXTwbzCA0-3dEh-31" value="" style="verticalLabelPosition=bottom;html=1;verticalAlign=top;align=center;strokeColor=none;fillColor=#00BEF2;shape=mxgraph.azure.virtual_network;pointerEvents=1;" vertex="1" parent="1">
          <mxGeometry x="399" y="322.5" width="50" height="27.500000000000004" as="geometry" />
        </mxCell>
        <mxCell id="oHEbXPWXTwbzCA0-3dEh-34" value="" style="verticalLabelPosition=bottom;html=1;verticalAlign=top;align=center;strokeColor=none;fillColor=#00BEF2;shape=mxgraph.azure.web_roles;" vertex="1" parent="1">
          <mxGeometry x="500" y="252" width="30" height="38" as="geometry" />
        </mxCell>
        <mxCell id="oHEbXPWXTwbzCA0-3dEh-35" value="" style="verticalLabelPosition=bottom;html=1;verticalAlign=top;align=center;strokeColor=none;fillColor=#00BEF2;shape=mxgraph.azure.web_roles;" vertex="1" parent="1">
          <mxGeometry x="720" y="252" width="35" height="38" as="geometry" />
        </mxCell>
        <mxCell id="oHEbXPWXTwbzCA0-3dEh-36" value="" style="verticalLabelPosition=bottom;html=1;verticalAlign=top;align=center;strokeColor=none;fillColor=#00BEF2;shape=mxgraph.azure.web_roles;" vertex="1" parent="1">
          <mxGeometry x="610" y="252" width="32.5" height="38" as="geometry" />
        </mxCell>
      </root>
    </mxGraphModel>
  </diagram>
</mxfile>
